<svg fill="none" height="501" viewBox="0 0 1504 501" width="1504" xmlns="http://www.w3.org/2000/svg"><path d="m-27.0445 340.201c-4.6622-.63 9.2249-21.565 9.7412-22.45 15.2702-26.179 35.5176-49.579 55.1523-71.917 13.6615-15.542 28.7618-29.376 44.4799-42.423 18.0531-14.984 37.1831-31.819 57.9461-42.345 16.031-8.127 43.757-14.616 60.739-6.812 12.556 5.77 20.521 26.995 23.78 39.868 9.837 38.861 9.456 77.905-8.166 114.03-15.073 30.902-36.882 69.829-66.684 86.471-28.272 15.787-20.564-55.611-18.837-66.808 6.924-44.901 41.889-87.323 73.417-114.959 32.296-28.309 74.49-55.054 117.825-50.396 31.794 3.417 56.88 27.792 66.254 60.15 13.59 46.905 4.588 100.403-12.248 144.841-8.456 22.32-17.977 44.793-29.51 65.491-7.037 12.63-16.569 27.44-29.94 32.824-28.22 11.363-15.349-75.763-13.322-85.774 5.452-26.927 16.335-51.731 28.077-76.02 15.472-32.003 30.82-64.438 50.139-93.98 45.694-69.876 109.616-121.2023 180.642-157.6143 90.63-46.4627 192.923-65.1599 291.949-40.4099 70.402 17.5959 134.453 88.2002 144.255 166.5942 6.645 53.182-9.813 107.762-27.289 156.762-17.012 47.697-40.404 96.653-70.123 136.635-9.301 12.513-34.667 42.111-43.692 12.85-10.046-32.574 7.579-65.933 23.35-92.276 29.226-48.817 69.034-92.244 112.74-126.03 23.989-18.547 49.839-34.62 76.999-47.067 23.8-10.904 50.23-21.485 76.57-19.353 31.38 2.539 67.27 22.98 81.29 54.499 15.19 34.126 9.53 73.303-3.22 106.985-16.22 42.842-41.83 85.139-73.77 116.275-7.7 7.504-16.38 17.585-26.36 21.676-7.64 3.13-8.52-9.805-8.6-15.018-.28-18.387 8.02-35.332 15.76-51.248 13.91-28.605 32.5-52.339 55.58-72.769 50.25-44.466 114.97-65.625 178.21-76.175 39.89-6.655 83.69-6.83 123.77-.541 3.55.557 16.79 5.95 12.18-.697" stroke="#fff" stroke-linecap="round" stroke-width="2"/></svg>