<svg fill="none" height="653" viewBox="0 0 842 653" width="842" xmlns="http://www.w3.org/2000/svg" xmlns:xlink="http://www.w3.org/1999/xlink"><clipPath id="a"><path d="m0 0h858v653h-858z"/></clipPath><g clip-path="url(#a)"><g fill="#000"><path d="m112.3 232.8c-2.4-.2-4.4-.3-6.5-.5 0 .3-.1.5-.1.8 23.1 6 46.2 12 69.2 18.1-.1.6-.1.4-.1 1.1h-8.6l-.1 1.5c2.4.2 4.8 1 7.1.6 7.2-1.2 13.9.9 20.5 3.1 36.9 12.3 73.9 24.4 110.6 37.2 38.9 13.5 77.5 27.8 116.3 41.6 3.6 1.3 4.9 2.9 4.5 6.8-.5 5.4-.1 11-.1 17.4-7-2.7-13.3-5.1-19.5-7.6-31-12.4-62-24.8-93-37.3-45.9-18.5-91.6-37.4-137.7-55.6-27.7-10.9-55.8-20.7-85.0002-27.1-2.1-.5-4.3-.7-6.4-1.1-.1.4-.2.9-.3 1.3 1.6.6 3.1 1.1 4.9 1.8l-4.9.6v.9c4.7 1.1 9.5 1.6 14 3.3 25.3002 9.2 50.8002 17.8 75.5002 28.3 30.3 12.9 59.9 27.4 89.8 41.1 40.3 18.6 80.7 37.1 121 55.7 12.5 5.8 24.9 11.8 37.5 17.5 2.8 1.3 3.4 2.9 3.3 5.8-.6 17-.9 244-1.3 261 0 1.2.3 2.5.4 3.7h1.6c.4-19 .9-248.1 1.3-267.8 5.4 2.5 10.1 4.4 14.6 6.8 1.1.6 1.8 2.9 1.9 4.4.2 4.9.1 9.8.1 14.7l1.5.1.8-16.7h2.2c.9 13.7-.1 237.5-.5 251.2h2.1v-250c28.7 13.2 55.9 25.7 83 38.1l.8-1.4c-1.4-.8-2.8-1.6-4.2-2.3-24.6-11.4-49.1-22.8-73.8-34-3.6-1.6-4.9-3.5-4.6-7.5.4-4.9.1-9.9.1-15.4 63 24.5 125.1 48.7 187.1 72.9l.8-1.8c-1.4-.6-2.7-1.4-4.1-1.9-57.6-22.4-115.3-44.9-172.9-67.3-11-4.3-11-4.3-10.2-16.1.2-3.5.4-6.9.7-11.3 59.3 21.2 118.3 42.2 177.2 63.2l.7-1.9c-41.7-14.9-83.4-29.7-124.7-44.5 0-11.9-.2-23.5 0-35.1.4-22 2.5-44 1.2-65.9-1.8-31.4.4-62.6.3-94 0-1.3-.1-2.6-.9-3.9-3.8 65.7.1 131.6-3.8 197.8-7.1-2.6-14.3-5-21.3-7.9-1-.4-1.7-2.9-1.7-4.4.5-16.7 1.2-33.3 1.8-49.9.1-1.6 0-3.2 0-4.9-.6 0-1.1 0-1.7-.1-.8 19.2-1.6 38.3-2.4 58.1-8-2.8-15.5-5.4-23-8.3-1-.4-2-2.2-2-3.4.2-14 .6-28 1-41.9.1-3.6 6.1-9 9.8-9.3 5.6-.4 11.2-.8 17-2.3-.9-.2-1.8-.7-2.7-.7-5.3.3-10.6.6-15.9 1.1-4.5.4-10 7.4-10.1 12.6-.4 12.8-.7 25.6-1.1 38.4 0 1.1-.2 2.3-.4 3.4l-1.5.4c-.5-1.8-1.4-3.6-1.4-5.5.4-25 2.4-50 1-74.9-1.4-23.8.4-47.5-.5-71.2-.3-7.5 1.3-15.1.5-22.4-3.4-28.3-.7-56.7-1.7-85-.1-3.2-1.2-6.5-1.2-9.7 0-2.1 1.2-4.3 2.8-6.4 2.2 6.1-.9 13.1 5.3 17.9 5.3 4.1 11.1 5.7 17.8 3.9-1.6-.3-3.1-.6-4.7-.8-11.2-1-15.2-5.3-15.5-16.5-.1-5.2 1.2-9.3 5.1-13.2 8.8-8.8 16.9-18.4 25.5-27.5.9-1 3.4-1.3 4.9-.9 7.7 2.3 11 7 10.3 15.7-.9 11.9-1.2 24.1.2 35.9 3 25.5 1.1 50.9 1.5 76.4.4 29.3-1 58.6.7 87.8 1.3 22.5-.6 44.8-.7 67.2 0 7-.4 14-.9 21-.1 1.8-.1 3.5-.1 5.3h1.4c.2-1.2.5-2.3.6-3.5 1-24.5 3.6-49 2.5-73.4-.9-19.6-.6-39-.6-58.6 0-12 .3-24 .2-35.9-.2-25.9.7-52-1.5-77.7-1.4-16.1-.4-32-1.4-47.9-.1-1.6 0-3.2 0-5 3.8.5 4.8 2.4 4.7 5.6-.3 7.8-.3 15.7-.4 23.5 0 2 .3 4.1.5 6.1l1.5-.1v-32.1l294.9 158.8c.3-.5.6-1.1.9-1.6-4.8-2.6-227.6-122.3-232.4-124.9-20-11-40-21.9-59.9-33-1.2-.7-2.7-2.2-2.8-3.5-.3-5.4-.1-10.9-.1-17.6 44.9 23.1 292 149.9 336.1 172.6l.8-1.2c-.9-.7-1.7-1.5-2.7-2-40.3-20.8-283.7-145.5-324-166.3-4.2-2.2-8.4-4.4-12.4-7-4.8-3.2-9.4-3.2-14 .2-1.3 1-2.8 2.7-4 2.5-9-1.4-18.1-2.6-26.7-5.1-5.8-1.7-10.9-5.59999-16.6-8.79999.3-1.2.6-2.7 1.2-5.200004-1.3 1.100004-2.1 1.400004-2.3 1.900004-7.5 17.69999-20.5 31.49999-32.5 45.89999-23.5 28.1-47 56.2-71.7 83.2-19.5 21.3-40.6 41.3-61.5 61.3-19.1 18.2-39.7 34.5-62.7 47.5-6.1 3.4-12.5 6.3-19 8.7-3.6 1.3-8 2.3-11.6 1.5-13.2-3-26.2-6.7-39.3-10.3-1.1-.3-2-1.2-3-1.8-3.6-.6-7.3-1-10.9-1.8m-24.5-5.5h1.2zm-3.6002-2.2c0 1.7.1 3.4.2 5 .5002 0 .9002.1 1.4002.1m168.8 2.6h.4c0-2.5-.4-5.1.1-7.5.4-2 1.5-4.4 3.1-5.5 26.6-17.5 51.7-37 75.1-58.5 25.3-23.3 50-47.3 74.9-71 2.1-2 3.8-4.3 5.7-6.5.4.3.9.6 1.3.9-1.8 82.3-3.5 164.6-5.3 247-78.9-27.6-157.1-54.9-235.4-82.3 14.5 1.5 28.4-1.7 41.6-7.6 12.9-5.8 25.5-12.3 38.5-18.6zm-75.2 14c3.3-1.5 6.6-2.9 9.8-4.5 26.7-13.2 49.7-31.7 71-52 25-24 49.1-49 73.1-74.1 12.5-13.1 23.8-27.3 35.7-41.1 5.9-6.8 11.8-13.7 18.4-21.4v34.7c.6-6.2 1.2-12.4.4-18.5-1.6-12.4 2.4-22.1 11-30.9 6.2-6.3 11.2-13.8 17.1-21.2.3 1.3.5 1.7.5 2.2-.4 19.3-.7 38.6-1.2 57.9 0 1.7-1.4 3.7-2.7 4.9-22.6 22.1-45.3 44.1-68 66-4.7 4.5-9.8 8.7-15.5 13.7 0-6 0-10.8 0-15.5-.4 3.3-.7 6.7-.3 10 .5 4.5-1.3 7.4-4.8 10.1-7.2 5.6-14.1 11.7-21.2 17.4-26.4 21.1-53.6 41.1-84.9 54.7-12.2 5.4-24.7 9.1-38.4 7.6zm247.6-175.3c.5 7.3 1.1 13.8 1.4 20.2 1.1 23.5-1.4 47 1.4 70.5 1.8 15.1-.4 30.6-.4 45.9.1 18.9.8 37.8.8 56.7 0 16-.5 32-.7 47.9-.1 8.6 0 17.1 0 26.5-5.4-1.9-9.3-3.4-13.2-4.6-3.2-.9-4.4-2.4-4.3-6 .5-13.6.6-27.3.9-41 1.4-66.5 3-132.9 4.1-199.4.2-7.5 3.9-11.8 10-16.7zm-340.5 163.3c1.8.2 2.6.1 3.3.4 23.6 7.9 47.6 14.9 70.8 24 50.9 19.9 101.4 41 152.1 61.5 30.8 12.5 61.7 24.7 92.6 37.1 1.6.6 3.7 2.2 3.8 3.5.4 5.4.2 10.8.2 16.9-2.7-1.1-4.6-1.8-6.3-2.6-15.5-7.2-31-14.4-46.6-21.6-34.5-15.8-68.9-31.7-103.4-47.4-41-18.7-81.9-37.5-123.1-55.7-13.8-6.2-28.3-10.6-43.4-16.1zm342.2-220.5c-.6 0-1.1 0-1.7.1 0 15.8-.5 31.6.2 47.4.3 7.8-4.7 10.8-9.8 16 0-3.6 0-5.9 0-8.1.3-15.6 1.1-31.3.8-46.9-.1-7.6 2.9-12.9 8.4-18.09999 12.3 8.19999 26 13.79999 39 21.79999-10.1 11-19.8 21.5-29.6 32.1-.4-.1-.9-.3-1.3-.4 0-5.9 0-11.8 0-17.8-.6 0-1.1 0-1.7 0 0 6 .2 12-.1 18-.1 2.2-1.5 4.3-2.3 6.4-.6-.2-1.3-.4-1.9-.5 0-16.7 0-33.4 0-50zm-17.3 320.9c5.8 2.1 10.4 3.6 14.8 5.4 1 .4 2.3 1.7 2.3 2.6.2 6.9.1 13.8.1 21.7-5.9-2.5-10.8-4.4-15.6-6.6-.8-.4-1.5-1.7-1.6-2.7-.1-6.4 0-12.9 0-20.4zm16.9 51.9c-6.1-2.8-10.9-4.9-15.6-7.2-.8-.4-1.5-1.7-1.5-2.7-.1-5.5-.1-10.9-.1-17.1 5.5 2.1 10.3 3.7 15 5.7 1 .4 2 1.9 2.1 2.9.2 5.8.1 11.5.1 18.4zm40.9-361.5c3.8-4.6 7.4-8.9 11.7-14.1 2.2 2.3 5.7 4.3 6.1 6.8.9 5.2.3 10.8.3 17.5-8.4-4.7-3-12.4-6.7-17.3v13.4c-4.4-2.4-7.8-4.3-11.4-6.3zm-35.9 340.2c-3.4-1.1-4.3-15.6-1.7-23 2.5 1.3 2.5 1.3 1.7 23zm19.1-349.5c8.3-1 15.6 5.1 22.6-1.3-2 2.7-3.9 5.3-6.1 7.4-.8.8-2.8 1.3-3.7.9-4.2-2-8.1-4.3-12.8-7zm-20.3 372.1c-.5.1-.9.2-1.4.2 0-6.8 0-13.6 0-20.5 3 1.4 3.7 12.2 1.4 20.3z"/><path d="m485.3 166.4c-5.7-.3-11.3-.6-17-.9-2-.1-4-.3-6-.2-6.4.4-9.8.3-10.8-9.7-1.2-11-.9-22.3-.4-33.4.1-2.4 3.1-5.9 5.5-6.7 7.5-2.7 15.5-2.3 22.1 2.1 3.4 2.3 4.9 7.3 7 10.6 1.3-2.2 0-7.6-3.6-11-5.8-5.5-22.6-7.3-28.8-2.4-2.3 1.8-4.2 5.4-4.4 8.3-.5 9.8-.2 19.6-.1 29.4 0 2.3.5 4.6 1.2 6.9 1.8 6 4.2 7.8 10.4 7.8 8.3.1 16.6 0 24.9 0 0-.2 0-.5 0-.8z"/><path d="m450.199 239.7c.6 5.8 1 11.6 1.9 17.3.2 1 2.4 2.2 3.7 2.3 6.3.2 12.6.2 19 0 4.7-.1 7.8-2.8 8-7.3.5-16.5.5-32.9.6-49.4 0-.4-.4-.8-1.4-2.5-.2 2.9-.5 4.6-.5 6.2-.2 14.3-.3 28.6-.5 42.9-.1 6.2-2 8-8.1 8.1-5 .1-10-.2-15 .2-3.6.2-4.9-1.4-5-4.5-.1-4.4 0-8.9 0-13.3-1 0-1.9 0-2.7 0z"/><path d="m502.599 89.6v73.4h1.3c0-24.5 0-49 0-73.5-.4.1-.9.1-1.3.1z"/><path d="m475.1 43.6c10 2.6 10.4 10.8 10.3 18.3 0 9.1-1.3 18.2-2 27.3-.1 1 0 2.1 1.1 3.7.2-.5.4-.9.5-1.4 1.7-12.6 4.3-25.3 1.6-38-1-4.9-3.3-9.1-8.9-10.2-.9-.2-1.8.2-2.6.3z"/><path d="m402.2 161.9c0-13.1 0-26.3 0-39.4-.1 0-.1 0-.2 0v39.5c.1-.1.1-.1.2-.1z"/><path d="m309 237.7v33.8h.2c0-11.3 0-22.5 0-33.8-.1.1-.2 0-.2 0z"/><path d="m401 207.3v29.3h.2c0-9.7 0-19.5 0-29.2-.1 0-.2-.1-.2-.1z"/><path d="m400.2 296c0-8.7 0-17.4 0-26.2-.1 0-.2 0-.2 0v26.2z"/></g><path d="m96.4997 231.1c1.2-19.2.3001-38.6-2.7999-57.6-.4-2.5-.9001-5.1-2.8001-6.8-2.8-2.5-7.4999-1.6-10.1999.9-2.8 2.6-4.0001 6.3-5.2001 9.8-1.1 3.2-2.1999 6.5-3.2999 9.7-.5 1.4-1 2.9-.5 4.4.4 1.4 2.1999 2.6 3.3999 1.8" stroke="#000" stroke-linecap="round" stroke-linejoin="round" stroke-miterlimit="10" stroke-width="2"/><path d="m59.4993 202.7c3.8-13.4 3.8-27.9-.1-41.3-.6-2.1-1.5-4.3-3.4-5.4-2.7-1.4-6.5 1.1-6.3 4.1-.2-.6-.4-1.1-.5-1.7" stroke="#000" stroke-linecap="round" stroke-linejoin="round" stroke-miterlimit="10" stroke-width="2"/><path d="m82.4998 150.1c0-.5 0-.9 0-1.4 1.6 0 2.8 1.4 3.2 2.9s.1 3.1-.2 4.6c-.1.3-.1.7-.4.9-.6.6-1.7001-.1-2.2001-.8-1.1-1.4-1.8999-3.1-1.5999-4.8s2.1-3.2 3.7-2.5" stroke="#000" stroke-linecap="round" stroke-linejoin="round" stroke-miterlimit="10" stroke-width="2"/><path d="m43.5993 142.6c1 1.1 1.7 2.5 1.9 4 .1.6-.1 1.4-.8 1.4-.4 0-.7-.4-.9-.7-.7-1.3-1-2.7-1-4.2 0-.6.5-1.4 1-1.1" stroke="#000" stroke-linecap="round" stroke-linejoin="round" stroke-miterlimit="10" stroke-width="2"/><path d="m51.899 143.4c1.4 1.7 2.1 3.5 1.8 5-.1.6-.7 1.3-1.8.9-.7-.3-1.1-.8-1.3-1.3-.8-1.6-.8-3.2-.2-4.5.3-.6 1.4-1 2.2-.3" stroke="#000" stroke-linecap="round" stroke-linejoin="round" stroke-miterlimit="10" stroke-width="2"/><path d="m45.8997 172.8c.2-2.6.4-5.3.7-7.9.2-1.9.3001-3.9-.3999-5.8-.7-1.8-2.5001-3.4-4.4001-3.1-1.5.2-2.5999 1.4-3.2999 2.7-.6 1.3-.8001 2.8-.9001 4.3-.5 5.4-1 11 .8 16.1.9 2.5 2.3001 4.7 3.8001 6.9" stroke="#000" stroke-linecap="round" stroke-linejoin="round" stroke-miterlimit="10" stroke-width="2"/><path d="m42 190.2c-9.6-2.3-19.5-3.2-29.3-2.5 5 1 10 1.6 15.1 1.8-1.4-1.8-3.8-2.4-6.1-2.7-5.5-.9-11-1.1-16.49999-.6 6.59999-.3 13.29999-.1 19.79999.5-7.8-2.3-16.00004-3.1-24.100037-2.4" stroke="#000" stroke-linecap="round" stroke-linejoin="round" stroke-miterlimit="10" stroke-width="2"/><path d="m48.0996 207.8c-5.4-1.6-11-2.4-16.6-2.5-.2 0-.4 0-.5.1-.4.3.1.9.6 1.1 4 1.8 8.5 2.4 12.8 2.9-6.7-1.8-13.5-2.9-20.4-3.2-.9 0-2 .1-2.3.9.3.5.9.6 1.4.7 5.3.9 10.7 1.8 16 2.7" stroke="#000" stroke-linecap="round" stroke-linejoin="round" stroke-miterlimit="10" stroke-width="2"/></g></svg>