<svg width="842" height="653" viewBox="0 0 842 653" fill="none" xmlns="http://www.w3.org/2000/svg">
<g clip-path="url(#clip0_983_23)">
<path d="M112.3 232.8C109.9 232.6 107.9 232.5 105.8 232.3C105.8 232.6 105.7 232.8 105.7 233.1C128.8 239.1 151.9 245.1 174.9 251.2C174.8 251.8 174.8 251.6 174.8 252.3H166.2L166.1 253.8C168.5 254 170.9 254.8 173.2 254.4C180.4 253.2 187.1 255.3 193.7 257.5C230.6 269.8 267.6 281.9 304.3 294.7C343.2 308.2 381.8 322.5 420.6 336.3C424.2 337.6 425.5 339.2 425.1 343.1C424.6 348.5 425 354.1 425 360.5C418 357.8 411.7 355.4 405.5 352.9C374.5 340.5 343.5 328.1 312.5 315.6C266.6 297.1 220.9 278.2 174.8 260C147.1 249.1 119 239.3 89.7998 232.9C87.6998 232.4 85.4998 232.2 83.3998 231.8C83.2998 232.2 83.1998 232.7 83.0998 233.1C84.6998 233.7 86.1998 234.2 87.9998 234.9L83.0998 235.5C83.0998 236 83.0998 235.9 83.0998 236.4C87.7998 237.5 92.5998 238 97.0998 239.7C122.4 248.9 147.9 257.5 172.6 268C202.9 280.9 232.5 295.4 262.4 309.1C302.7 327.7 343.1 346.2 383.4 364.8C395.9 370.6 408.3 376.6 420.9 382.3C423.7 383.6 424.3 385.2 424.2 388.1C423.6 405.1 423.3 632.1 422.9 649.1C422.9 650.3 423.2 651.6 423.3 652.8C423.8 652.8 424.3 652.8 424.9 652.8C425.3 633.8 425.8 404.7 426.2 385C431.6 387.5 436.3 389.4 440.8 391.8C441.9 392.4 442.6 394.7 442.7 396.2C442.9 401.1 442.8 406 442.8 410.9L444.3 411L445.1 394.3C446.5 394.3 445.9 394.3 447.3 394.3C448.2 408 447.2 631.8 446.8 645.5C447.5 645.5 448.2 645.5 448.9 645.5V395.5C477.6 408.7 504.8 421.2 531.9 433.6L532.7 432.2C531.3 431.4 529.9 430.6 528.5 429.9C503.9 418.5 479.4 407.1 454.7 395.9C451.1 394.3 449.8 392.4 450.1 388.4C450.5 383.5 450.2 378.5 450.2 373C513.2 397.5 575.3 421.7 637.3 445.9L638.1 444.1C636.7 443.5 635.4 442.7 634 442.2C576.4 419.8 518.7 397.3 461.1 374.9C450.1 370.6 450.1 370.6 450.9 358.8C451.1 355.3 451.3 351.9 451.6 347.5C510.9 368.7 569.9 389.7 628.8 410.7L629.5 408.8C587.8 393.9 546.1 379.1 504.8 364.3C504.8 352.4 504.6 340.8 504.8 329.2C505.2 307.2 507.3 285.2 506 263.3C504.2 231.9 506.4 200.7 506.3 169.3C506.3 168 506.2 166.7 505.4 165.4C501.6 231.1 505.5 297 501.6 363.2C494.5 360.6 487.3 358.2 480.3 355.3C479.3 354.9 478.6 352.4 478.6 350.9C479.1 334.2 479.8 317.6 480.4 301C480.5 299.4 480.4 297.8 480.4 296.1C479.8 296.1 479.3 296.1 478.7 296C477.9 315.2 477.1 334.3 476.3 354.1C468.3 351.3 460.8 348.7 453.3 345.8C452.3 345.4 451.3 343.6 451.3 342.4C451.5 328.4 451.9 314.4 452.3 300.5C452.4 296.9 458.4 291.5 462.1 291.2C467.7 290.8 473.3 290.4 479.1 288.9C478.2 288.7 477.3 288.2 476.4 288.2C471.1 288.5 465.8 288.8 460.5 289.3C456 289.7 450.5 296.7 450.4 301.9C450 314.7 449.7 327.5 449.3 340.3C449.3 341.4 449.1 342.6 448.9 343.7L447.4 344.1C446.9 342.3 446 340.5 446 338.6C446.4 313.6 448.4 288.6 447 263.7C445.6 239.9 447.4 216.2 446.5 192.5C446.2 185 447.8 177.4 447 170.1C443.6 141.8 446.3 113.4 445.3 85.1C445.2 81.9 444.1 78.6 444.1 75.4C444.1 73.3 445.3 71.1 446.9 69C449.1 75.1 446 82.1 452.2 86.9C457.5 91 463.3 92.6 470 90.8C468.4 90.5 466.9 90.2 465.3 90C454.1 89 450.1 84.7 449.8 73.5C449.7 68.3 451 64.2 454.9 60.3C463.7 51.5 471.8 41.9 480.4 32.8C481.3 31.8 483.8 31.5 485.3 31.9C493 34.2 496.3 38.9 495.6 47.6C494.7 59.5 494.4 71.7 495.8 83.5C498.8 109 496.9 134.4 497.3 159.9C497.7 189.2 496.3 218.5 498 247.7C499.3 270.2 497.4 292.5 497.3 314.9C497.3 321.9 496.9 328.9 496.4 335.9C496.3 337.7 496.3 339.4 496.3 341.2H497.7C497.9 340 498.2 338.9 498.3 337.7C499.3 313.2 501.9 288.7 500.8 264.3C499.9 244.7 500.2 225.3 500.2 205.7C500.2 193.7 500.5 181.7 500.4 169.8C500.2 143.9 501.1 117.8 498.9 92.1C497.5 76 498.5 60.1 497.5 44.2C497.4 42.6 497.5 41 497.5 39.2C501.3 39.7 502.3 41.6 502.2 44.8C501.9 52.6 501.9 60.5 501.8 68.3C501.8 70.3 502.1 72.4 502.3 74.4L503.8 74.3V42.2L798.7 201C799 200.5 799.3 199.9 799.6 199.4C794.8 196.8 572 77.1 567.2 74.5C547.2 63.5 527.2 52.6 507.3 41.5C506.1 40.8 504.6 39.3 504.5 38C504.2 32.6 504.4 27.1 504.4 20.4C549.3 43.5 796.4 170.3 840.5 193L841.3 191.8C840.4 191.1 839.6 190.3 838.6 189.8C798.3 169 554.9 44.3 514.6 23.5C510.4 21.3 506.2 19.1 502.2 16.5C497.4 13.3 492.8 13.3 488.2 16.7C486.9 17.7 485.4 19.4 484.2 19.2C475.2 17.8 466.1 16.6 457.5 14.1C451.7 12.4 446.6 8.50001 440.9 5.30001C441.2 4.10001 441.5 2.60001 442.1 0.100006C440.8 1.20001 440 1.50001 439.8 2.00001C432.3 19.7 419.3 33.5 407.3 47.9C383.8 76 360.3 104.1 335.6 131.1C316.1 152.4 295 172.4 274.1 192.4C255 210.6 234.4 226.9 211.4 239.9C205.3 243.3 198.9 246.2 192.4 248.6C188.8 249.9 184.4 250.9 180.8 250.1C167.6 247.1 154.6 243.4 141.5 239.8C140.4 239.5 139.5 238.6 138.5 238C134.9 237.4 131.2 237 127.6 236.2M103.1 230.7C103.5 230.7 103.9 230.7 104.3 230.7ZM99.4998 228.5C99.4998 230.2 99.5998 231.9 99.6998 233.5C100.2 233.5 100.6 233.6 101.1 233.6M269.9 236.2C270 236.2 270.2 236.2 270.3 236.2C270.3 233.7 269.9 231.1 270.4 228.7C270.8 226.7 271.9 224.3 273.5 223.2C300.1 205.7 325.2 186.2 348.6 164.7C373.9 141.4 398.6 117.4 423.5 93.7C425.6 91.7 427.3 89.4 429.2 87.2C429.6 87.5 430.1 87.8 430.5 88.1C428.7 170.4 427 252.7 425.2 335.1C346.3 307.5 268.1 280.2 189.8 252.8C204.3 254.3 218.2 251.1 231.4 245.2C244.3 239.4 256.9 232.9 269.9 226.6C269.9 229.9 269.9 233.1 269.9 236.2ZM194.7 250.2C198 248.7 201.3 247.3 204.5 245.7C231.2 232.5 254.2 214 275.5 193.7C300.5 169.7 324.6 144.7 348.6 119.6C361.1 106.5 372.4 92.3 384.3 78.5C390.2 71.7 396.1 64.8 402.7 57.1C402.7 69.4 402.7 80.6 402.7 91.8C403.3 85.6 403.9 79.4 403.1 73.3C401.5 60.9 405.5 51.2 414.1 42.4C420.3 36.1 425.3 28.6 431.2 21.2C431.5 22.5 431.7 22.9 431.7 23.4C431.3 42.7 431 62 430.5 81.3C430.5 83 429.1 85 427.8 86.2C405.2 108.3 382.5 130.3 359.8 152.2C355.1 156.7 350 160.9 344.3 165.9C344.3 159.9 344.3 155.1 344.3 150.4C343.9 153.7 343.6 157.1 344 160.4C344.5 164.9 342.7 167.8 339.2 170.5C332 176.1 325.1 182.2 318 187.9C291.6 209 264.4 229 233.1 242.6C220.9 248 208.4 251.7 194.7 250.2ZM442.3 74.9C442.8 82.2 443.4 88.7 443.7 95.1C444.8 118.6 442.3 142.1 445.1 165.6C446.9 180.7 444.7 196.2 444.7 211.5C444.8 230.4 445.5 249.3 445.5 268.2C445.5 284.2 445 300.2 444.8 316.1C444.7 324.7 444.8 333.2 444.8 342.6C439.4 340.7 435.5 339.2 431.6 338C428.4 337.1 427.2 335.6 427.3 332C427.8 318.4 427.9 304.7 428.2 291C429.6 224.5 431.2 158.1 432.3 91.6C432.5 84.1 436.2 79.8 442.3 74.9ZM101.8 238.2C103.6 238.4 104.4 238.3 105.1 238.6C128.7 246.5 152.7 253.5 175.9 262.6C226.8 282.5 277.3 303.6 328 324.1C358.8 336.6 389.7 348.8 420.6 361.2C422.2 361.8 424.3 363.4 424.4 364.7C424.8 370.1 424.6 375.5 424.6 381.6C421.9 380.5 420 379.8 418.3 379C402.8 371.8 387.3 364.6 371.7 357.4C337.2 341.6 302.8 325.7 268.3 310C227.3 291.3 186.4 272.5 145.2 254.3C131.4 248.1 116.9 243.7 101.8 238.2ZM444 17.7C443.4 17.7 442.9 17.7 442.3 17.8C442.3 33.6 441.8 49.4 442.5 65.2C442.8 73 437.8 76 432.7 81.2C432.7 77.6 432.7 75.3 432.7 73.1C433 57.5 433.8 41.8 433.5 26.2C433.4 18.6 436.4 13.3 441.9 8.10001C454.2 16.3 467.9 21.9 480.9 29.9C470.8 40.9 461.1 51.4 451.3 62C450.9 61.9 450.4 61.7 450 61.6C450 55.7 450 49.8 450 43.8C449.4 43.8 448.9 43.8 448.3 43.8C448.3 49.8 448.5 55.8 448.2 61.8C448.1 64 446.7 66.1 445.9 68.2C445.3 68 444.6 67.8 444 67.7C444 51 444 34.3 444 17.7ZM426.7 338.6C432.5 340.7 437.1 342.2 441.5 344C442.5 344.4 443.8 345.7 443.8 346.6C444 353.5 443.9 360.4 443.9 368.3C438 365.8 433.1 363.9 428.3 361.7C427.5 361.3 426.8 360 426.7 359C426.6 352.6 426.7 346.1 426.7 338.6ZM443.6 390.5C437.5 387.7 432.7 385.6 428 383.3C427.2 382.9 426.5 381.6 426.5 380.6C426.4 375.1 426.4 369.7 426.4 363.5C431.9 365.6 436.7 367.2 441.4 369.2C442.4 369.6 443.4 371.1 443.5 372.1C443.7 377.9 443.6 383.6 443.6 390.5ZM484.5 29C488.3 24.4 491.9 20.1 496.2 14.9C498.4 17.2 501.9 19.2 502.3 21.7C503.2 26.9 502.6 32.5 502.6 39.2C494.2 34.5 499.6 26.8 495.9 21.9C495.9 26 495.9 30.2 495.9 35.3C491.5 32.9 488.1 31 484.5 29ZM448.6 369.2C445.2 368.1 444.3 353.6 446.9 346.2C449.4 347.5 449.4 347.5 448.6 369.2ZM467.7 19.7C476 18.7 483.3 24.8 490.3 18.4C488.3 21.1 486.4 23.7 484.2 25.8C483.4 26.6 481.4 27.1 480.5 26.7C476.3 24.7 472.4 22.4 467.7 19.7ZM447.4 391.8C446.9 391.9 446.5 392 446 392C446 385.2 446 378.4 446 371.5C449 372.9 449.7 383.7 447.4 391.8Z" fill="black"/>
<path d="M485.3 166.4C479.6 166.1 474 165.8 468.3 165.5C466.3 165.4 464.3 165.2 462.3 165.3C455.9 165.7 452.5 165.6 451.5 155.6C450.3 144.6 450.6 133.3 451.1 122.2C451.2 119.8 454.2 116.3 456.6 115.5C464.1 112.8 472.1 113.2 478.7 117.6C482.1 119.9 483.6 124.9 485.7 128.2C487 126 485.7 120.6 482.1 117.2C476.3 111.7 459.5 109.9 453.3 114.8C451 116.6 449.1 120.2 448.9 123.1C448.4 132.9 448.7 142.7 448.8 152.5C448.8 154.8 449.3 157.1 450 159.4C451.8 165.4 454.2 167.2 460.4 167.2C468.7 167.3 477 167.2 485.3 167.2C485.3 167 485.3 166.7 485.3 166.4Z" fill="black"/>
<path d="M450.199 239.7C450.799 245.5 451.199 251.3 452.099 257C452.299 258 454.499 259.2 455.799 259.3C462.099 259.5 468.399 259.5 474.799 259.3C479.499 259.2 482.599 256.5 482.799 252C483.299 235.5 483.299 219.1 483.399 202.6C483.399 202.2 482.999 201.8 481.999 200.1C481.799 203 481.499 204.7 481.499 206.3C481.299 220.6 481.199 234.9 480.999 249.2C480.899 255.4 478.999 257.2 472.899 257.3C467.899 257.4 462.899 257.1 457.899 257.5C454.299 257.7 452.999 256.1 452.899 253C452.799 248.6 452.899 244.1 452.899 239.7C451.899 239.7 450.999 239.7 450.199 239.7Z" fill="black"/>
<path d="M502.599 89.6C502.599 114.1 502.599 138.5 502.599 163C502.999 163 503.499 163 503.899 163C503.899 138.5 503.899 114 503.899 89.5C503.499 89.6 502.999 89.6 502.599 89.6Z" fill="black"/>
<path d="M475.1 43.6C485.1 46.2 485.5 54.4 485.4 61.9C485.4 71 484.1 80.1 483.4 89.2C483.3 90.2 483.4 91.3 484.5 92.9C484.7 92.4 484.9 92 485 91.5C486.7 78.9 489.3 66.2 486.6 53.5C485.6 48.6 483.3 44.4 477.7 43.3C476.8 43.1 475.9 43.5 475.1 43.6Z" fill="black"/>
<path d="M402.2 161.9C402.2 148.8 402.2 135.6 402.2 122.5C402.1 122.5 402.1 122.5 402 122.5C402 135.7 402 148.8 402 162C402.1 161.9 402.1 161.9 402.2 161.9Z" fill="black"/>
<path d="M309 237.7C309 249 309 260.3 309 271.5C309.1 271.5 309.2 271.5 309.2 271.5C309.2 260.2 309.2 249 309.2 237.7C309.1 237.8 309 237.7 309 237.7Z" fill="black"/>
<path d="M401 207.3C401 217.1 401 226.9 401 236.6C401.1 236.6 401.2 236.6 401.2 236.6C401.2 226.9 401.2 217.1 401.2 207.4C401.1 207.4 401 207.3 401 207.3Z" fill="black"/>
<path d="M400.2 296C400.2 287.3 400.2 278.6 400.2 269.8C400.1 269.8 400 269.8 400 269.8C400 278.5 400 287.2 400 296C400.1 296 400.2 296 400.2 296Z" fill="black"/>
<path d="M96.4997 231.1C97.6997 211.9 96.7998 192.5 93.6998 173.5C93.2998 171 92.7997 168.4 90.8997 166.7C88.0997 164.2 83.3998 165.1 80.6998 167.6C77.8998 170.2 76.6997 173.9 75.4997 177.4C74.3997 180.6 73.2998 183.9 72.1998 187.1C71.6998 188.5 71.1998 190 71.6998 191.5C72.0998 192.9 73.8997 194.1 75.0997 193.3" stroke="black" stroke-width="2" stroke-miterlimit="10" stroke-linecap="round" stroke-linejoin="round"/>
<path d="M59.4993 202.7C63.2993 189.3 63.2993 174.8 59.3993 161.4C58.7993 159.3 57.8993 157.1 55.9993 156C53.2993 154.6 49.4993 157.1 49.6993 160.1C49.4993 159.5 49.2993 159 49.1993 158.4" stroke="black" stroke-width="2" stroke-miterlimit="10" stroke-linecap="round" stroke-linejoin="round"/>
<path d="M82.4998 150.1C82.4998 149.6 82.4998 149.2 82.4998 148.7C84.0998 148.7 85.2998 150.1 85.6998 151.6C86.0998 153.1 85.7998 154.7 85.4998 156.2C85.3998 156.5 85.3998 156.9 85.0998 157.1C84.4998 157.7 83.3997 157 82.8997 156.3C81.7997 154.9 80.9998 153.2 81.2998 151.5C81.5998 149.8 83.3998 148.3 84.9998 149" stroke="black" stroke-width="2" stroke-miterlimit="10" stroke-linecap="round" stroke-linejoin="round"/>
<path d="M43.5993 142.6C44.5993 143.7 45.2993 145.1 45.4993 146.6C45.5993 147.2 45.3993 148 44.6993 148C44.2993 148 43.9993 147.6 43.7993 147.3C43.0993 146 42.7993 144.6 42.7993 143.1C42.7993 142.5 43.2993 141.7 43.7993 142" stroke="black" stroke-width="2" stroke-miterlimit="10" stroke-linecap="round" stroke-linejoin="round"/>
<path d="M51.899 143.4C53.299 145.1 53.999 146.9 53.699 148.4C53.599 149 52.999 149.7 51.899 149.3C51.199 149 50.799 148.5 50.599 148C49.799 146.4 49.799 144.8 50.399 143.5C50.699 142.9 51.799 142.5 52.599 143.2" stroke="black" stroke-width="2" stroke-miterlimit="10" stroke-linecap="round" stroke-linejoin="round"/>
<path d="M45.8997 172.8C46.0997 170.2 46.2997 167.5 46.5997 164.9C46.7997 163 46.8998 161 46.1998 159.1C45.4998 157.3 43.6997 155.7 41.7997 156C40.2997 156.2 39.1998 157.4 38.4998 158.7C37.8998 160 37.6997 161.5 37.5997 163C37.0997 168.4 36.5997 174 38.3997 179.1C39.2997 181.6 40.6998 183.8 42.1998 186" stroke="black" stroke-width="2" stroke-miterlimit="10" stroke-linecap="round" stroke-linejoin="round"/>
<path d="M42 190.2C32.4 187.9 22.5 187 12.7 187.7C17.7 188.7 22.7 189.3 27.8 189.5C26.4 187.7 24 187.1 21.7 186.8C16.2 185.9 10.7 185.7 5.20001 186.2C11.8 185.9 18.5 186.1 25 186.7C17.2 184.4 8.99996 183.6 0.899963 184.3" stroke="black" stroke-width="2" stroke-miterlimit="10" stroke-linecap="round" stroke-linejoin="round"/>
<path d="M48.0996 207.8C42.6996 206.2 37.0996 205.4 31.4996 205.3C31.2996 205.3 31.0996 205.3 30.9996 205.4C30.5996 205.7 31.0996 206.3 31.5996 206.5C35.5996 208.3 40.0996 208.9 44.3996 209.4C37.6996 207.6 30.8996 206.5 23.9996 206.2C23.0996 206.2 21.9996 206.3 21.6996 207.1C21.9996 207.6 22.5996 207.7 23.0996 207.8C28.3996 208.7 33.7996 209.6 39.0996 210.5" stroke="black" stroke-width="2" stroke-miterlimit="10" stroke-linecap="round" stroke-linejoin="round"/>
</g>
<defs>
<clipPath id="clip0_983_23">
<rect width="858" height="653" fill="white"/>
</clipPath>
</defs>
</svg>
