<svg width="853" height="1017" viewBox="0 0 853 1017" fill="none" xmlns="http://www.w3.org/2000/svg">
<path d="M35.9377 2C6.14666 35.1012 -22.5502 116.722 35.9377 138.092C50.1651 143.291 62.2532 146.217 77.4651 146.217C93.5944 146.217 114.086 135.387 116.848 117.893C118.517 107.323 117.523 97.4678 106.015 97.4678C98.6031 97.4678 89.4421 99.8073 83.6717 104.69C38.6048 142.824 13.1631 191.834 7.95189 251.39C4.11168 295.278 33.0152 341.008 65.6163 367.622C128.359 418.84 213.393 436.449 291.647 446.952C352.502 455.121 414.999 458.576 476.376 458.576C524.631 458.576 572.939 456.505 621.158 454.964C667.341 453.489 716.324 455.638 762.216 448.419C783.05 445.142 807.734 434.055 825.635 422.916C845.9 410.307 841.257 385.761 836.243 365.703C834.337 358.081 828.626 353.353 821.573 350.92C814.578 348.508 808.005 347.472 800.696 346.294C793.377 345.113 787.518 348.18 780.948 351.597C764.996 359.895 746.881 369.858 735.132 383.871C697.083 429.255 683.051 482.24 670.133 538.696C651.294 621.029 637.07 708.001 650.498 792.149C658.257 840.775 683.537 880.925 709.629 922.147C737.232 965.757 764.406 1009.81 806.113 1041.09C857.021 1079.27 913.72 1112.99 972.674 1137.35C1021.17 1157.38 1068.7 1170.17 1121.07 1172.44C1169.06 1174.52 1220.45 1182.36 1264.61 1159.12C1280.35 1150.84 1297.44 1139.29 1307.94 1124.82C1313.24 1117.51 1321.97 1102.79 1329.83 1098.86" stroke="#EBEBEB" stroke-width="3" stroke-linecap="round"/>
</svg>
